<?xml version="1.0" encoding="UTF-8"?>
<svg id="Layer_1" xmlns="http://www.w3.org/2000/svg" version="1.1" viewBox="0 0 64 64">
  <!-- Generator: Adobe Illustrator 30.5.1, SVG Export Plug-In . SVG Version: 2.1.4 Build 3)  -->
  <defs>
    <style>
      .st0 {
        fill: #002459;
      }
    </style>
  </defs>
  <path class="st0" d="M52,0H12C5.37,0,0,5.37,0,12v40c0,6.63,5.37,12,12,12h40c6.63,0,12-5.37,12-12V12c0-6.63-5.37-12-12-12ZM31.48,37.08c-1.14,0-2.19-.17-3.16-.51-.97-.34-1.8-.81-2.5-1.4-.69-.59-1.24-1.28-1.63-2.09-.85.9-1.94,1.57-3.16,1.93l7.5,7.82h-6.11l-6.91-7.25h-6.98v-.03c.58-2.69,2.96-4.61,5.71-4.61h3.09c1.8,0,2.93-.62,3.4-1.86.06-.16.11-.33.15-.5.04-.24.06-.45.06-.65,0-.55-.21-1.03-.64-1.42-.35-.33-.92-.52-1.71-.57h0c-.26-.01-.44-.02-.51-.02h-5.32s-3.91-4.39-4.21-4.74l10.14.03h0c2.75.05,4.68.73,5.79,2.06.65.78,1.12,1.59,1.4,2.42-.02.02-.04.03-.06.05.7-.57,1.53-1.01,2.5-1.31.97-.31,2.02-.46,3.16-.46h9.2l-2.61,3.41h-6.59c-.55,0-1.06.08-1.53.24-.47.16-.88.38-1.22.66-.34.28-.61.62-.8,1.01-.2.39-.29.82-.29,1.29s.09.9.28,1.28c.19.39.46.72.8.99s.76.49,1.23.64c.47.15.98.23,1.53.23h4.57l6.02-8.49c.27-.38.62-.72,1.04-1.02.42-.3.97-.45,1.59-.45s1.13.14,1.54.42c.31.21.59.46.83.75l-2.44,3.45h0s-1.29,1.82-1.29,1.82l-4.87,6.88h-6.98ZM40.22,37.08l2.45-3.37h4.52c.42,0,.79.01,1.11.04-.18-.24-.4-.53-.64-.89-.24-.36-.47-.7-.7-1.01l-1.61-2.34,2.42-3.57h0l7.7,11.14h-15.26Z"/>
</svg>